<?xml version="1.0" encoding="UTF-8"?> <svg xmlns="http://www.w3.org/2000/svg" xmlns:xlink="http://www.w3.org/1999/xlink" version="1.1" id="lni_lni-checkmark" x="0px" y="0px" viewBox="0 0 50 32.2" style="enable-background:new 0 0 50 32.2;" xml:space="preserve"> <g> <path d="M48.6,0c-0.4,0-0.7,0.1-1,0.4L18,29.2c-0.1,0.1-0.3,0.2-0.4,0.2s-0.3-0.1-0.4-0.2L2.5,14.9c-0.3-0.3-0.6-0.4-1-0.4 s-0.7,0.1-1,0.4c-0.6,0.6-0.6,1.5,0,2l14.7,14.3c0.6,0.6,1.5,1,2.4,1c0.9,0,1.7-0.3,2.4-1L49.5,2.5c0.7-0.6,0.7-1.5,0.2-2 C49.4,0.1,49,0,48.6,0L48.6,0z"></path> </g> </svg> 