<?xml version="1.0" encoding="UTF-8"?> <svg xmlns="http://www.w3.org/2000/svg" id="Doepke_Wortmarke_Kopie" data-name="Doepke_Wortmarke Kopie" viewBox="0 0 3578.32 1025.29"><defs><style>.cls-1{fill:#005a96;}</style></defs><title>Doepke_Logo_RGB</title><path class="cls-1" d="M506,1122.89h89.8c131.54,0,193.14-90.83,193.14-220.3,0-125.26-62.63-209.86-185.87-209.86H506ZM336.82,620.68c0-54.29,40.71-84.55,84.55-84.55H624c221.3,0,346.6,175.38,346.6,366.46,0,243.26-162.83,376.9-346.6,376.9H421.38c-43.85,0-84.55-30.26-84.55-84.55Z" transform="translate(-336.82 -469.31)"></path><path class="cls-1" d="M1188.26,985.09c0,75.18,39.68,137.81,111.72,137.81s111.72-62.63,111.72-137.81S1372,847.23,1300,847.23s-111.72,62.67-111.72,137.86m386.32,0c0,163.91-109.62,294.41-274.6,294.41s-274.6-130.51-274.6-294.41S1135,690.63,1300,690.63s274.6,130.51,274.6,294.45" transform="translate(-336.82 -469.31)"></path><path class="cls-1" d="M2011,926.6c0-36.54-41.74-98.14-105.45-98.14s-105.45,61.6-105.45,98.14Zm-210.89,111.72c0,34.43,26.09,90.83,130.51,90.83,80.38,0,129.47-51.15,167-51.15,36.54,0,67.87,28.2,67.87,69.94,0,79.39-132.61,131.58-255.81,131.58-175.38,0-285-130.51-285-294.41,0-156.64,118-294.45,285-294.45,160.81,0,264.15,134.68,264.15,276.66,0,57.43-27.13,71-79.35,71Z" transform="translate(-336.82 -469.31)"></path><path class="cls-1" d="M2631.83,985.08c0-75.18-39.68-137.81-111.72-137.81s-111.72,62.63-111.72,137.81,39.68,137.81,111.72,137.81,111.72-62.63,111.72-137.81M2245.51,785.66c0-47,33.4-84.55,81.46-84.55,39.63,0,64.7,27.13,76.21,52.19,36.54-44.92,78.32-62.63,139.88-62.63,142,0,251.64,130.51,251.64,294.41s-109.66,294.41-251.64,294.41c-69.94,0-105.45-21.88-134.68-45.91V1410c0,46.94-33.4,84.55-81.42,84.55s-81.46-37.61-81.46-84.55Z" transform="translate(-336.82 -469.31)"></path><path class="cls-1" d="M2865.86,553.86c0-47,33.4-84.55,81.46-84.55s81.42,37.57,81.42,84.55V900.5l132.61-132.61c28.2-28.2,52.19-56.36,91.86-56.36,48.06,0,79.35,35.47,79.35,75.18,0,29.19-18.79,48-57.43,85.59L3187.44,959l136.78,173.32c16.72,20.89,38.64,48.06,38.64,72,0,31.34-24,75.18-80.38,75.18-37.61,0-54.33-11.48-88.77-55.37l-162.87-213h-2.11v183.77c0,47-33.4,84.6-81.42,84.6s-81.46-37.61-81.46-84.6Z" transform="translate(-336.82 -469.31)"></path><path class="cls-1" d="M3752.27,926.6c0-36.54-41.74-98.14-105.45-98.14s-105.45,61.6-105.45,98.14Zm-210.89,111.72c0,34.43,26.09,90.83,130.51,90.83,80.38,0,129.47-51.15,167-51.15,36.54,0,67.88,28.2,67.88,69.94,0,79.39-132.61,131.58-255.81,131.58-175.38,0-285-130.51-285-294.41,0-156.64,118-294.45,285-294.45,160.81,0,264.15,134.68,264.15,276.66,0,57.43-27.13,71-79.35,71Z" transform="translate(-336.82 -469.31)"></path></svg> 